<svg id="Capa_1" enable-background="new 0 0 512.001 512.001" height="512" viewBox="0 0 512.001 512.001" width="512" xmlns="http://www.w3.org/2000/svg"><g><g><g clip-rule="evenodd" fill-rule="evenodd"><path d="m153.812 265.501c13.479 0 25.361-6.839 32.366-17.236 24.691 15.75 69.822 2.671 69.822-17.263 0 19.934 45.131 33.013 69.822 17.263 7.005 10.397 18.887 17.236 32.366 17.236 16.717 0 30.975-10.519 36.522-25.298 11.281 7.74 24.934 12.267 39.637 12.267 38.822 0 70.058-31.375 70.152-70.152-.088-36.272-27.584-66.592-63.763-69.859 15.338-48.443-38.153-89.742-81.036-63.402-1.752 1.076-3.439 2.247-5.054 3.508-24.921-28.752-60.604-45.009-98.646-45.064-38.042.056-73.724 16.313-98.647 45.064-1.615-1.26-3.302-2.432-5.054-3.508-42.883-26.34-96.374 14.959-81.036 63.402-36.146 3.264-63.712 33.602-63.763 69.859.055 38.764 31.363 70.152 70.152 70.152 14.703 0 28.357-4.528 39.637-12.267 5.548 14.779 19.806 25.298 36.523 25.298z" fill="#ddddde"/><path d="m153.812 265.501c39.542 0 71.895 32.353 71.895 71.895 0 15.925 1.323 35.249-1.991 50.678 9.813 1.65 20.751 2.572 32.285 2.572s22.472-.921 32.285-2.572c-3.314-15.429-1.991-34.752-1.991-50.678 0-39.542 32.353-71.895 71.895-71.895-13.479 0-25.361-6.839-32.366-17.236-24.693 15.751-69.824 2.671-69.824-17.263 0 19.934-45.131 33.013-69.822 17.263-7.005 10.397-18.887 17.236-32.366 17.236z" fill="#e5ecf5"/><path d="m27.437 504.5h457.127c0-16.362-13.264-29.625-29.625-29.625-1.875-22.564-33.599-40.88-58.971-24.358-8.955-15.31-26.257-21.621-41.461-21.621-12.262 0-23.393 4.839-31.588 12.711-17.597-13.036-30.023-32.072-34.634-53.533-20.687 3.479-43.882 3.479-64.569 0-4.611 21.461-17.037 40.497-34.634 53.533-8.196-7.872-19.327-12.711-31.588-12.711-15.203 0-32.505 6.311-41.461 21.621-25.372-16.522-57.096 1.794-58.971 24.358-16.362 0-29.625 13.264-29.625 29.625z" fill="#e5ecf5"/><path d="m153.812 265.501c13.479 0 25.361-6.839 32.366-17.236 24.691 15.75 69.822 2.671 69.822-17.263 0 19.934 45.131 33.013 69.822 17.263 7.005 10.397 18.887 17.236 32.366 17.236 16.717 0 30.975-10.519 36.522-25.298 11.281 7.74 24.934 12.267 39.637 12.267 43.362 0 76.141-38.9 69.23-81.395-8.296 51.097-81.986 75.362-123.867 46.628-5.886 32.543-27.719 35.773-46.389 8.063-13.9 8.867-62.322 10.684-62.322-9.763h-30c0 20.447-48.422 18.63-62.322 9.763-18.67 27.711-40.315 22.605-46.389-8.063-41.864 28.723-115.603 4.459-123.875-46.627-6.895 42.504 25.865 81.394 69.239 81.394 14.703 0 28.357-4.528 39.637-12.267 5.548 14.779 19.806 25.298 36.523 25.298zm289.345-175.277c-.201-2.015-.514-3.997-.937-5.938-.395 1.878-.879 3.769-1.482 5.673.811.073 1.616.165 2.419.265zm-373.376-5.938c-.423 1.941-.735 3.923-.937 5.938.803-.1 1.608-.192 2.419-.265-.603-1.904-1.088-3.795-1.482-5.673z" fill="#9a999d"/><path d="m225.907 365.928c-.167 7.723-.725 15.316-2.192 22.146 9.813 1.65 20.751 2.572 32.285 2.572s22.472-.921 32.285-2.572c-1.467-6.83-2.025-14.423-2.192-22.146-9.24 1.428-19.411 2.218-30.093 2.218s-20.853-.79-30.093-2.218z" fill="#b0c5e0"/><path d="m27.437 504.5h457.127c0-9.003-4.016-17.066-10.354-22.5h-436.419c-6.338 5.434-10.354 13.498-10.354 22.5z" fill="#b0c5e0"/></g><g><path d="m278.5 482h-15v-15h15zm-30 0h-15v-15h15zm30-337.999h-15v-15h15zm-30 0h-15v-15h15z" fill="#fff"/></g></g><g><path d="m152.677 58.428 5.628 4.488 4.715-5.439c23.4-26.995 57.291-42.477 92.98-42.477 35.69 0 69.581 15.482 92.98 42.476l4.777 5.512 5.643-4.623c17.499-14.336 41.268-10.164 55.947-.217 17.899 12.128 24.719 31.584 18.24 52.046l-2.815 8.894 9.291.839c32.46 2.932 56.938 29.754 56.938 62.39 0 20.596-10.14 39.888-27.122 51.605l8.518 12.347c21.042-14.518 33.604-38.425 33.604-63.952 0-19.507-7.264-38.157-20.453-52.514-11.133-12.119-25.656-20.302-41.562-23.556 4.251-23.745-5.351-46.374-26.225-60.518-21.599-14.634-48.085-15.628-68.058-3.14-25.987-27.146-61.947-42.589-99.703-42.589-37.77 0-73.739 15.451-99.73 42.618-19.303-12.088-43.72-12.467-63.999-.523l7.611 12.925c16.955-9.984 37.677-8.646 52.795 3.408z"/><path d="m461.263 467.914c-3.058-10.892-11.479-20.633-23.117-26.332-12.851-6.292-27.308-6.505-39.895-.837-10.823-13.223-27.813-19.349-43.744-19.349-11.555 0-22.604 3.694-31.729 10.514-3.419-2.928-6.603-6.132-9.506-9.571-7.109-8.418-12.406-18.11-15.669-28.445 24.355-5.381 42.587-15.814 42.587-30.998 0-14.393-17.09-26.045-46.089-31.738 3.148-32.591 30.685-58.157 64.088-58.157 16.293 0 31.316-8.661 39.665-22.239 11.041 5.91 23.539 9.208 36.495 9.208 10.191 0 20.107-1.95 29.472-5.796l-5.698-13.875c-7.547 3.1-15.546 4.671-23.773 4.671-25.769 0-49.284-16.165-58.515-40.224l-14.004 5.373c4.939 12.876 13.183 23.929 23.524 32.331-5.593 9.477-15.935 15.551-27.166 15.551-10.497 0-20.271-5.206-26.146-13.926l-4.087-6.066-6.166 3.933c-13.8 8.804-36.193 6.657-49.028-.38-5.799-3.179-9.261-7.127-9.261-10.56h-15c0 3.433-3.462 7.381-9.261 10.56-12.835 7.036-35.229 9.182-49.028.38l-6.166-3.933-4.087 6.066c-5.875 8.72-15.649 13.926-26.146 13.926-11.231 0-21.572-6.075-27.165-15.551 10.342-8.402 18.585-19.455 23.524-32.331l-14.004-5.373c-9.23 24.06-32.746 40.224-58.515 40.224-34.548 0-62.653-28.105-62.653-62.652 0-32.636 24.478-59.458 56.938-62.39l9.291-.839-2.815-8.894c-5.363-16.938-1.171-34.571 11.214-47.168l-10.696-10.516c-14.286 14.53-20.317 34.123-16.896 53.733-15.913 3.25-30.445 11.436-41.583 23.56-13.189 14.357-20.453 33.007-20.453 52.514 0 42.817 34.835 77.652 77.652 77.652 12.956 0 25.453-3.297 36.495-9.208 8.348 13.577 23.372 22.239 39.664 22.239 33.403 0 60.94 25.566 64.088 58.157-28.999 5.693-46.089 17.345-46.089 31.738 0 15.183 18.231 25.617 42.587 30.998-3.263 10.335-8.56 20.027-15.669 28.445-2.903 3.439-6.087 6.644-9.506 9.571-9.126-6.819-20.175-10.514-31.729-10.514-15.931 0-32.921 6.126-43.744 19.349-12.588-5.667-27.044-5.454-39.895.837-11.638 5.699-20.06 15.44-23.117 26.332-15.019 2.588-26.97 14.233-30.03 29.086h-20.707v15h512v-15h-20.707c-3.061-14.853-15.012-26.498-30.03-29.086zm-136.074-105.018c0 4.537-10.65 11.906-30.763 16.393-.411-3.316-.634-6.663-.634-10.027v-22.847c21.36 4.632 31.397 12.239 31.397 16.481zm-142.947-99.611c2.117-1.637 4.109-3.452 5.934-5.454 18.85 8.444 43.225 5.135 58.274-3.116 3.783-2.074 6.981-4.432 9.55-7.01 2.568 2.578 5.767 4.936 9.55 7.01 15.05 8.25 39.423 11.561 58.274 3.116 1.824 2.002 3.816 3.817 5.933 5.454-29.772 11.461-50.964 40.35-50.964 74.111v31.865c0 4.205.281 8.389.823 12.527-7.097.854-14.973 1.357-23.616 1.357s-16.519-.503-23.616-1.357c.542-4.139.823-8.323.823-12.527v-31.865c0-33.761-21.192-62.65-50.965-74.111zm4.569 99.611c0-4.242 10.037-11.849 31.396-16.482v22.847c0 3.365-.222 6.712-.634 10.027-20.113-4.486-30.762-11.855-30.762-16.392zm-129.749 119.479c5.654 0 11.035 2.131 15.151 6.002l10.275-10.928c-4.571-4.298-10.071-7.319-16.018-8.871 2.606-5.462 7.603-10.401 13.98-13.524 8.416-4.122 17.5-4.51 25.714-1.25-1.326 3.422-2.331 7.131-2.961 11.135l14.818 2.33c3.583-22.788 23.502-30.873 39.471-30.873 9.89 0 19.263 3.771 26.394 10.621l4.569 4.389 5.091-3.772c6.124-4.537 11.723-9.792 16.643-15.617 8.839-10.468 15.292-22.612 19.083-35.553 8.646 1.117 17.698 1.682 26.728 1.682s18.081-.565 26.728-1.682c3.792 12.941 10.244 25.086 19.083 35.553 4.92 5.825 10.519 11.08 16.643 15.617l5.091 3.772 4.569-4.389c7.131-6.849 16.504-10.621 26.394-10.621 15.969 0 35.888 8.085 39.471 30.873l14.818-2.33c-.63-4.004-1.635-7.712-2.961-11.135 8.212-3.258 17.297-2.872 25.714 1.25 6.378 3.124 11.374 8.062 13.98 13.524-5.946 1.552-11.446 4.573-16.018 8.871l10.275 10.928c4.116-3.871 9.497-6.002 15.151-6.002 9.568 0 17.735 6.106 20.814 14.625h-439.505c3.079-8.519 11.246-14.625 20.815-14.625z"/></g></g></svg>